<?xml version="1.0" standalone="no"?>
<!DOCTYPE svg PUBLIC "-//W3C//DTD SVG 20010904//EN"
 "http://www.w3.org/TR/2001/REC-SVG-20010904/DTD/svg10.dtd">
<svg version="1.0" xmlns="http://www.w3.org/2000/svg"
 width="1000.000000pt" height="1000.000000pt" viewBox="0 0 1000.000000 1000.000000"
 preserveAspectRatio="xMidYMid meet">
<metadata>
Created by potrace 1.11, written by Peter Selinger 2001-2013
</metadata>
<g transform="translate(0.000000,1000.000000) scale(0.100000,-0.100000)"
fill="#000000" stroke="none">
<path d="M4746 7170 c-10 -12 -12 -142 -12 -578 1 -555 1 -562 -19 -563 -11 0
-987 -2 -2170 -2 l-2150 -2 0 -1710 0 -1710 40 -2 c22 -1 72 -2 110 -2 39 0
79 -1 90 -1 11 -1 27 -1 35 -1 8 0 1982 1 4387 2 l4372 1 0 1714 c0 943 -3
1715 -7 1715 -25 4 -394 4 -397 -1 -2 -4 -3781 -5 -3870 -1 -20 1 -20 8 -20
374 -1 204 2 374 6 377 4 3 951 5 2106 5 l2098 -1 -1 191 c-1 104 -2 195 -3
200 -1 7 -772 10 -2292 10 -2024 0 -2292 -2 -2303 -15z m4281 -2856 l2 -1311
-4117 1 -4117 1 -1 1305 c0 718 3 1308 8 1311 4 3 1857 5 4116 5 l4107 -1 2
-1311z"/>
<path d="M1200 5240 l-35 -5 0 -195 0 -195 180 0 179 0 1 198 c0 169 -2 197
-15 198 -82 3 -282 3 -310 -1z"/>
<path d="M1764 5045 l1 -200 180 0 179 0 1 194 c0 139 -3 195 -11 198 -7 2
-88 5 -181 6 l-169 2 0 -200z"/>
<path d="M2365 5045 l0 -200 180 0 179 0 1 194 c0 149 -3 195 -13 198 -7 3
-88 6 -180 7 l-168 1 1 -200z"/>
<path d="M2965 5045 l0 -200 180 0 180 0 0 198 c0 126 -3 197 -10 198 -5 0
-87 1 -180 2 l-170 2 0 -200z"/>
<path d="M3600 5240 l-36 -5 1 -195 0 -195 180 0 179 0 1 194 c0 140 -3 195
-11 198 -17 6 -272 9 -314 3z"/>
<path d="M4179 5242 c-12 -2 -14 -36 -14 -200 l0 -197 180 0 180 0 0 193 c0
107 -4 196 -9 199 -9 6 -311 10 -337 5z"/>
<path d="M4799 5240 l-35 -5 0 -195 1 -195 180 0 179 0 1 198 c0 170 -2 197
-15 198 -83 3 -283 3 -311 -1z"/>
<path d="M5382 5239 c-16 -6 -17 -25 -16 -190 1 -101 2 -190 3 -196 1 -10 44
-12 178 -10 l177 2 1 193 c0 107 -2 197 -5 200 -6 9 -316 9 -338 1z"/>
<path d="M5971 5240 c-4 -3 -7 -94 -7 -202 l0 -197 180 2 180 2 1 194 c0 149
-3 195 -12 198 -18 7 -333 9 -342 3z"/>
<path d="M6566 5055 c1 -104 2 -196 3 -202 1 -10 44 -12 178 -10 l178 2 0 198
c0 126 -3 197 -10 198 -5 0 -87 1 -180 2 l-171 2 2 -190z"/>
<path d="M7200 5240 l-35 -5 -1 -180 c0 -99 1 -188 4 -197 4 -15 22 -17 180
-15 l176 2 1 193 c0 107 -3 196 -8 199 -11 7 -273 9 -317 3z"/>
<path d="M7777 5238 c-9 -5 -12 -66 -12 -202 l0 -195 179 2 180 2 1 193 c0
106 -2 196 -5 200 -7 9 -329 9 -343 0z"/>
<path d="M8400 5240 l-35 -5 1 -180 c1 -99 2 -188 3 -197 1 -16 16 -17 178
-15 l177 2 1 198 c0 169 -2 197 -15 198 -76 3 -282 3 -310 -1z"/>
<path d="M1166 4720 c-1 -3 -2 -93 -2 -200 l1 -195 180 0 180 0 0 188 c0 104
-3 194 -7 200 -6 10 -348 17 -352 7z"/>
<path d="M1771 4715 c-4 -5 -7 -95 -7 -200 l1 -190 180 -1 180 -2 0 194 c0
106 -4 196 -8 200 -11 11 -338 10 -346 -1z"/>
<path d="M2376 4718 c-9 -5 -12 -56 -12 -200 l1 -193 165 -2 c91 -1 172 0 180
3 13 3 15 33 15 193 0 104 -4 193 -7 197 -10 9 -326 11 -342 2z"/>
<path d="M2969 4720 c-4 -13 -5 -376 -2 -386 3 -9 57 -12 181 -12 l177 1 0
193 c0 106 -3 196 -7 200 -9 8 -347 12 -349 4z"/>
<path d="M3566 4720 c-2 -3 -2 -93 -2 -200 l1 -195 172 -2 c124 -1 175 2 180
10 4 7 8 96 8 200 0 159 -2 187 -15 188 -83 5 -270 2 -270 -4 0 -5 -5 -5 -12
-1 -14 9 -58 12 -62 4z"/>
<path d="M4176 4718 c-9 -5 -12 -54 -10 -190 1 -101 2 -188 3 -195 1 -9 47
-12 179 -11 l178 1 -1 193 c0 106 -4 196 -8 200 -9 9 -325 11 -341 2z"/>
<path d="M4776 4718 c-9 -5 -12 -58 -11 -200 l0 -193 172 -2 c122 -1 175 2
180 10 4 7 8 95 8 196 0 141 -3 185 -13 188 -20 8 -322 9 -336 1z"/>
<path d="M5367 4715 c-2 -5 -3 -95 -3 -200 l1 -190 180 -1 180 -1 0 193 c0
106 -4 196 -8 200 -11 11 -346 10 -350 -1z"/>
<path d="M5976 4718 c-8 -5 -11 -59 -11 -200 l0 -193 178 -2 c97 0 178 2 178
5 7 41 2 392 -6 393 -58 4 -329 2 -339 -3z"/>
<path d="M6566 4720 c-3 -5 0 -378 3 -393 0 -4 24 -6 51 -4 28 1 50 -1 50 -6
0 -4 5 -5 10 -2 6 3 63 7 128 7 l117 1 0 193 c0 106 -3 196 -7 200 -8 8 -349
12 -352 4z"/>
<path d="M7159 4716 l-25 -9 0 -736 c0 -493 3 -738 10 -743 12 -8 1494 -10
1551 -2 l40 6 0 738 c0 730 0 739 -20 745 -31 10 -1528 11 -1556 1z m571 -397
c3 -1 10 0 15 1 9 2 553 3 580 1 6 -1 10 -124 10 -348 l-1 -348 -400 -2 -400
-1 0 346 c0 328 1 347 19 352 16 4 164 4 177 -1z"/>
<path d="M7769 4196 c-1 -1 -2 -90 -3 -198 -2 -132 1 -198 8 -200 10 -3 295
-2 336 1 13 1 15 29 15 199 l0 197 -178 1 c-97 1 -178 1 -178 0z"/>
<path d="M1169 4205 c-1 0 -2 -91 -3 -201 l-2 -201 180 1 180 1 1 194 c0 141
-3 195 -12 198 -8 3 -208 8 -344 8z"/>
<path d="M1785 4202 c-20 -3 -21 -9 -21 -197 0 -167 2 -196 16 -200 8 -3 65
-4 127 -3 62 1 115 -1 119 -4 3 -4 16 -4 28 0 11 4 32 7 46 6 l25 -1 0 193 c0
106 -3 195 -7 199 -7 7 -293 13 -333 7z"/>
<path d="M2371 4195 c-4 -5 -7 -95 -7 -200 l1 -190 45 -3 c25 -1 56 -2 70 -1
14 0 74 1 135 2 l110 2 0 193 c0 107 -4 196 -9 199 -16 11 -337 8 -345 -2z"/>
<path d="M2977 4200 c-10 -4 -13 -52 -12 -199 l0 -195 27 -7 c16 -4 30 -4 32
-1 4 6 112 7 126 2 3 -1 10 -1 15 0 6 1 44 3 85 4 l75 1 0 197 c0 125 -4 198
-10 199 -62 3 -329 3 -338 -1z"/>
<path d="M3564 4004 l-1 -201 181 1 180 1 1 193 c0 107 -2 197 -5 200 -3 4
-84 7 -180 7 l-175 0 -1 -201z"/>
<path d="M4165 4005 l0 -200 25 -3 c14 -1 32 -2 40 -2 8 0 77 0 153 0 75 1
138 4 138 8 7 40 2 385 -5 389 -5 4 -86 7 -180 7 l-171 1 0 -200z"/>
<path d="M4766 4200 c-1 -3 -2 -93 -2 -200 l1 -195 40 -3 c45 -3 39 -3 198 -1
81 0 117 4 118 12 6 58 2 380 -5 385 -11 6 -347 9 -350 2z"/>
<path d="M5376 4198 c-9 -5 -12 -56 -12 -200 l1 -193 65 -3 c36 -1 72 -3 80
-2 8 0 59 0 113 0 53 1 98 4 98 8 6 38 2 385 -5 389 -13 9 -325 9 -340 1z"/>
<path d="M5983 4200 c-17 -5 -19 -19 -19 -201 l-1 -196 84 -2 c95 -2 91 -2
198 0 l80 1 0 193 c0 107 -4 197 -8 201 -8 8 -306 12 -334 4z"/>
<path d="M6585 4202 c-20 -3 -21 -9 -20 -200 l0 -197 25 -3 c14 -1 32 -2 40
-2 8 0 78 0 155 1 l140 1 0 199 c0 170 -2 199 -15 200 -61 2 -309 3 -325 1z"/>
<path d="M1205 3680 l-40 -5 0 -195 0 -195 178 -2 c97 -1 177 1 178 5 4 24 3
385 -1 390 -6 8 -256 9 -315 2z"/>
<path d="M1771 3680 c-4 -3 -7 -93 -7 -200 l1 -195 65 -2 c36 -1 75 -4 87 -7
13 -2 24 -2 27 2 2 4 39 6 83 5 43 0 83 3 88 7 12 10 14 375 2 386 -8 8 -335
12 -346 4z"/>
<path d="M2399 3680 l-36 -5 1 -195 1 -195 62 -1 c34 -1 69 -4 78 -7 8 -4 15
-3 15 1 0 8 154 6 175 -2 8 -3 18 0 22 7 10 17 10 388 0 394 -12 7 -271 10
-318 3z"/>
<path d="M2984 3682 c-20 -3 -21 -7 -19 -195 1 -106 3 -196 4 -200 0 -4 16 -7
34 -6 17 1 37 1 42 -1 6 -1 15 -1 20 0 12 2 428 2 435 -1 3 -1 10 0 15 1 22 5
135 1 144 -5 6 -3 11 -3 11 2 0 7 115 9 145 3 6 -1 15 -2 20 0 14 2 208 3 220
0 6 -1 15 -1 20 0 13 2 218 2 225 0 3 -2 10 -1 15 0 13 3 367 3 380 0 6 -1 15
-1 20 0 25 5 213 2 222 -3 6 -4 13 -3 17 1 4 3 44 5 89 4 l82 -2 0 200 c0 171
-2 200 -15 201 -61 2 -2110 3 -2126 1z"/>
<path d="M5383 3680 c-17 -5 -18 -19 -18 -200 l0 -195 103 -1 c56 -1 105 -4
108 -7 3 -3 12 -3 20 0 8 3 40 6 71 7 l57 1 1 198 c0 190 -1 197 -20 198 -83
4 -307 3 -322 -1z"/>
<path d="M6005 3680 l-40 -5 0 -195 0 -195 123 -1 c67 -1 125 -4 128 -7 3 -3
12 -3 20 0 7 3 30 6 51 6 l37 2 1 193 c0 107 -4 196 -9 199 -11 8 -258 10
-311 3z"/>
<path d="M6577 3680 c-10 -4 -13 -49 -11 -190 0 -102 2 -191 3 -197 1 -14 70
-17 226 -10 28 1 58 -1 67 -5 9 -5 19 -4 22 1 3 5 14 7 24 5 16 -5 17 9 17
190 0 107 -3 198 -7 202 -8 8 -322 12 -341 4z"/>
</g>
</svg>
